<svg id="SvgjsSvg1028" width="288" height="288" xmlns="http://www.w3.org/2000/svg" version="1.1" xmlns:xlink="http://www.w3.org/1999/xlink" xmlns:svgjs="http://svgjs.com/svgjs"><defs id="SvgjsDefs1029"></defs><g id="SvgjsG1030" transform="matrix(1,0,0,1,0,0)"><svg xmlns="http://www.w3.org/2000/svg" enable-background="new 0 0 25 25" viewBox="0 0 25 25" width="288" height="288"><path fill="#c49b66" d="M10.893,25c-0.13,0-0.26-0.025-0.382-0.076l-9.893-4.089c-0.442-0.183-0.693-0.654-0.598-1.124l0.989-4.861c0.095-0.466,0.504-0.801,0.979-0.801h4.946c0.31,0,0.603,0.144,0.792,0.389s0.254,0.565,0.175,0.865l-0.521,1.988l3.547,1.544l4.788-1.722l0.866-4.07H2.483c-0.307,0-0.597-0.141-0.786-0.382c-0.189-0.241-0.258-0.555-0.186-0.854L2.501,7.72c0.108-0.449,0.51-0.765,0.972-0.765h14.306l0.243-0.982L3.972,6.032c-0.001,0-0.003,0-0.004,0c-0.307,0-0.596-0.141-0.785-0.381c-0.191-0.242-0.26-0.558-0.187-0.857l0.989-4.032C4.096,0.314,4.496,0,4.957,0H24c0.297,0,0.578,0.132,0.769,0.36c0.189,0.228,0.269,0.528,0.215,0.82l-3.465,18.911c-0.061,0.331-0.283,0.609-0.593,0.74l-9.643,4.089C11.158,24.974,11.025,25,10.893,25z M2.145,19.302l8.743,3.614l8.761-3.715L22.8,2H5.741L5.244,4.027l14.053-0.059c0.324-0.035,0.6,0.14,0.79,0.382c0.19,0.243,0.259,0.559,0.185,0.858l-0.739,2.988c-0.11,0.446-0.511,0.76-0.971,0.76H4.26l-0.506,2.089h14.063c0.302,0,0.587,0.136,0.777,0.371c0.189,0.235,0.264,0.542,0.201,0.837l-1.239,5.822c-0.072,0.339-0.314,0.616-0.641,0.733l-5.686,2.044c-0.239,0.086-0.504,0.078-0.737-0.024l-4.696-2.044c-0.452-0.197-0.693-0.694-0.567-1.171l0.41-1.563H2.807L2.145,19.302z" class="color583689 svgShape"></path></svg></g></svg>